# Blender 4.3.2
# www.blender.org
mtllib cone.mtl
o Cone
v 0.000000 -1.000000 -1.000000
v 0.189251 -1.000000 -0.981929
v 0.371662 -1.000000 -0.928368
v 0.540641 -1.000000 -0.841254
v 0.690079 -1.000000 -0.723734
v 0.814576 -1.000000 -0.580057
v 0.909632 -1.000000 -0.415415
v 0.971812 -1.000000 -0.235759
v 0.998867 -1.000000 -0.047582
v 0.989821 -1.000000 0.142315
v 0.945001 -1.000000 0.327068
v 0.866025 -1.000000 0.500000
v 0.755750 -1.000000 0.654861
v 0.618159 -1.000000 0.786053
v 0.458227 -1.000000 0.888835
v 0.281733 -1.000000 0.959493
v 0.095056 -1.000000 0.995472
v -0.095056 -1.000000 0.995472
v -0.281733 -1.000000 0.959493
v -0.458227 -1.000000 0.888835
v -0.618159 -1.000000 0.786053
v -0.755750 -1.000000 0.654861
v -0.866025 -1.000000 0.500000
v -0.945001 -1.000000 0.327068
v -0.989821 -1.000000 0.142315
v -0.998867 -1.000000 -0.047582
v -0.971812 -1.000000 -0.235759
v -0.909632 -1.000000 -0.415415
v -0.814576 -1.000000 -0.580057
v -0.690079 -1.000000 -0.723734
v -0.540641 -1.000000 -0.841254
v -0.371662 -1.000000 -0.928368
v -0.189251 -1.000000 -0.981929
v 0.000000 1.000000 0.000000
vn 0.0851 0.4456 -0.8912
vn 0.2522 0.4456 -0.8590
vn 0.4102 0.4456 -0.7957
vn 0.5534 0.4456 -0.7037
vn 0.6766 0.4456 -0.5863
vn 0.7753 0.4456 -0.4476
vn 0.8460 0.4456 -0.2928
vn 0.8861 0.4456 -0.1274
vn 0.8942 0.4456 0.0426
vn 0.8700 0.4456 0.2111
vn 0.8143 0.4456 0.3719
vn 0.7292 0.4456 0.5193
vn 0.6178 0.4456 0.6479
vn 0.4840 0.4456 0.7531
vn 0.3327 0.4456 0.8311
vn 0.1694 0.4456 0.8791
vn -0.0000 0.4456 0.8952
vn -0.1694 0.4456 0.8791
vn -0.3327 0.4456 0.8311
vn -0.4840 0.4456 0.7531
vn -0.6178 0.4456 0.6479
vn -0.7292 0.4456 0.5193
vn -0.8143 0.4456 0.3719
vn -0.8700 0.4456 0.2111
vn -0.8942 0.4456 0.0426
vn -0.8861 0.4456 -0.1274
vn -0.8460 0.4456 -0.2928
vn -0.7753 0.4456 -0.4476
vn -0.6766 0.4456 -0.5863
vn -0.5534 0.4456 -0.7037
vn -0.4102 0.4456 -0.7957
vn -0.0000 -1.0000 -0.0000
vn -0.2522 0.4456 -0.8590
vn -0.0851 0.4456 -0.8912
vt 0.250000 0.490000
vt 0.250000 0.250000
vt 0.295420 0.485663
vt 0.339199 0.472808
vt 0.379754 0.451901
vt 0.415619 0.423696
vt 0.445498 0.389214
vt 0.468312 0.349700
vt 0.483235 0.306582
vt 0.489728 0.261420
vt 0.487557 0.215844
vt 0.476800 0.171504
vt 0.457846 0.130000
vt 0.431380 0.092833
vt 0.398358 0.061347
vt 0.359974 0.036680
vt 0.317616 0.019722
vt 0.272813 0.011087
vt 0.227187 0.011087
vt 0.182384 0.019722
vt 0.140026 0.036680
vt 0.101642 0.061347
vt 0.068620 0.092833
vt 0.042154 0.130000
vt 0.023200 0.171504
vt 0.012443 0.215844
vt 0.010272 0.261420
vt 0.016765 0.306582
vt 0.031688 0.349700
vt 0.054502 0.389214
vt 0.084381 0.423696
vt 0.120246 0.451901
vt 0.160801 0.472808
vt 0.795420 0.485663
vt 0.727187 0.011087
vt 0.510272 0.261420
vt 0.204580 0.485663
vt 0.704580 0.485663
vt 0.750000 0.490000
vt 0.839199 0.472808
vt 0.879754 0.451901
vt 0.915619 0.423696
vt 0.945498 0.389214
vt 0.968312 0.349700
vt 0.983235 0.306582
vt 0.989728 0.261420
vt 0.987557 0.215844
vt 0.976800 0.171504
vt 0.957846 0.130000
vt 0.931380 0.092833
vt 0.898358 0.061347
vt 0.859974 0.036680
vt 0.817616 0.019722
vt 0.772813 0.011087
vt 0.682384 0.019722
vt 0.640026 0.036680
vt 0.601642 0.061347
vt 0.568620 0.092833
vt 0.542154 0.130000
vt 0.523200 0.171504
vt 0.512443 0.215844
vt 0.516765 0.306582
vt 0.531688 0.349700
vt 0.554502 0.389214
vt 0.584381 0.423696
vt 0.620246 0.451901
vt 0.660801 0.472808
s 0
f 1/1/1 34/2/1 2/3/1
f 2/3/2 34/2/2 3/4/2
f 3/4/3 34/2/3 4/5/3
f 4/5/4 34/2/4 5/6/4
f 5/6/5 34/2/5 6/7/5
f 6/7/6 34/2/6 7/8/6
f 7/8/7 34/2/7 8/9/7
f 8/9/8 34/2/8 9/10/8
f 9/10/9 34/2/9 10/11/9
f 10/11/10 34/2/10 11/12/10
f 11/12/11 34/2/11 12/13/11
f 12/13/12 34/2/12 13/14/12
f 13/14/13 34/2/13 14/15/13
f 14/15/14 34/2/14 15/16/14
f 15/16/15 34/2/15 16/17/15
f 16/17/16 34/2/16 17/18/16
f 17/18/17 34/2/17 18/19/17
f 18/19/18 34/2/18 19/20/18
f 19/20/19 34/2/19 20/21/19
f 20/21/20 34/2/20 21/22/20
f 21/22/21 34/2/21 22/23/21
f 22/23/22 34/2/22 23/24/22
f 23/24/23 34/2/23 24/25/23
f 24/25/24 34/2/24 25/26/24
f 25/26/25 34/2/25 26/27/25
f 26/27/26 34/2/26 27/28/26
f 27/28/27 34/2/27 28/29/27
f 28/29/28 34/2/28 29/30/28
f 29/30/29 34/2/29 30/31/29
f 30/31/30 34/2/30 31/32/30
f 31/32/31 34/2/31 32/33/31
f 2/34/32 18/35/32 26/36/32
f 32/33/33 34/2/33 33/37/33
f 33/37/34 34/2/34 1/1/34
f 33/38/32 1/39/32 2/34/32
f 2/34/32 3/40/32 4/41/32
f 4/41/32 5/42/32 6/43/32
f 6/43/32 7/44/32 8/45/32
f 8/45/32 9/46/32 10/47/32
f 10/47/32 11/48/32 12/49/32
f 12/49/32 13/50/32 14/51/32
f 14/51/32 15/52/32 16/53/32
f 16/53/32 17/54/32 18/35/32
f 18/35/32 19/55/32 20/56/32
f 20/56/32 21/57/32 22/58/32
f 22/58/32 23/59/32 24/60/32
f 24/60/32 25/61/32 26/36/32
f 26/36/32 27/62/32 28/63/32
f 28/63/32 29/64/32 30/65/32
f 30/65/32 31/66/32 32/67/32
f 32/67/32 33/38/32 2/34/32
f 2/34/32 4/41/32 6/43/32
f 6/43/32 8/45/32 10/47/32
f 10/47/32 12/49/32 14/51/32
f 14/51/32 16/53/32 18/35/32
f 18/35/32 20/56/32 22/58/32
f 22/58/32 24/60/32 26/36/32
f 26/36/32 28/63/32 30/65/32
f 30/65/32 32/67/32 2/34/32
f 2/34/32 6/43/32 10/47/32
f 10/47/32 14/51/32 18/35/32
f 18/35/32 22/58/32 26/36/32
f 26/36/32 30/65/32 2/34/32
f 2/34/32 10/47/32 18/35/32
